HIERARCHY
ROOT Hips
{
	OFFSET 0.0000 0.0000 0.0000
	CHANNELS 6 Xposition Yposition Zposition Zrotation Xrotation Yrotation
	JOINT Ab
	{
		OFFSET -0.0000 8.1305 -0.0000
		CHANNELS 3 Zrotation Xrotation Yrotation
		JOINT Chest
		{
			OFFSET -0.0000 26.2902 -0.0000
			CHANNELS 3 Zrotation Xrotation Yrotation
			JOINT Neck
			{
				OFFSET -0.0000 26.2902 0.0000
				CHANNELS 3 Zrotation Xrotation Yrotation
				JOINT Head
				{
					OFFSET -0.0000 10.8167 0.0000
					CHANNELS 3 Zrotation Xrotation Yrotation
					End Site
					{
						OFFSET -0.0000 16.7167 0.0000
					}
				}
			}
			JOINT LeftCollar
			{
				OFFSET -0.0000 26.2902 0.0000
				CHANNELS 3 Zrotation Xrotation Yrotation
				JOINT LeftShoulder
				{
					OFFSET 19.6667 -0.0000 0.0000
					CHANNELS 3 Zrotation Xrotation Yrotation
					JOINT LeftElbow
					{
						OFFSET 27.2190 0.0000 0.0000
						CHANNELS 3 Zrotation Xrotation Yrotation
						JOINT LeftWrist
						{
							OFFSET 30.7431 0.0000 0.0000
							CHANNELS 3 Zrotation Xrotation Yrotation
							End Site
							{
								OFFSET 0.0000 -14.7500 0.0000
							}
						}
					}
				}
			}
			JOINT RightCollar
			{
				OFFSET -0.0000 26.2902 0.0000
				CHANNELS 3 Zrotation Xrotation Yrotation
				JOINT RightShoulder
				{
					OFFSET -19.6667 0.0000 0.0000
					CHANNELS 3 Zrotation Xrotation Yrotation
					JOINT RightElbow
					{
						OFFSET -27.2190 0.0000 0.0000
						CHANNELS 3 Zrotation Xrotation Yrotation
						JOINT RightWrist
						{
							OFFSET -30.7431 0.0000 0.0000
							CHANNELS 3 Zrotation Xrotation Yrotation
							End Site
							{
								OFFSET -0.0000 -14.7500 0.0000
							}
						}
					}
				}
			}
		}
	}
	JOINT LeftHip
	{
		OFFSET 11.8000 0.0000 0.0000
		CHANNELS 3 Zrotation Xrotation Yrotation
		JOINT LeftKnee
		{
			OFFSET -0.0000 -39.7832 0.0000
			CHANNELS 3 Zrotation Xrotation Yrotation
			JOINT LeftAnkle
			{
				OFFSET -0.0000 -41.7317 0.0000
				CHANNELS 3 Zrotation Xrotation Yrotation
				End Site
				{
					OFFSET -0.0000 -4.9167 16.7167
				}
			}
		}
	}
	JOINT RightHip
	{
		OFFSET -11.8000 0.0000 0.0000
		CHANNELS 3 Zrotation Xrotation Yrotation
		JOINT RightKnee
		{
			OFFSET -0.0000 -39.7832 0.0000
			CHANNELS 3 Zrotation Xrotation Yrotation
			JOINT RightAnkle
			{
				OFFSET -0.0000 -41.7317 0.0000
				CHANNELS 3 Zrotation Xrotation Yrotation
				End Site
				{
					OFFSET -0.0000 -4.9167 16.7167
				}
			}
		}
	}
}
MOTION
Frames: 17
Frame Time: 0.010000
-19.1936 97.0172 176.8787 358.3142 357.0156 180.1341 357.8493 348.1063 359.8831 2.5543 10.1696 359.8799 359.1240 357.5629 0.9021 355.3927 3.3628 1.0560 339.7500 357.3436 14.8898 317.2514 58.1578 340.4163 10.5328 356.9205 327.4072 89.1187 357.3450 347.5863 27.4718 355.8354 343.0823 46.9013 42.6681 1.0861 339.5901 354.1989 31.5795 269.8991 354.5084 8.9847 355.6420 2.8252 0.5109 358.0128 6.3048 5.1671 355.6465 352.1107 13.9518 358.4314 5.7925 11.5549 6.2708 5.7483 8.7884 349.1646 343.5292 311.3282 
-19.2130 97.0111 176.8613 358.3163 356.9795 180.1289 357.8537 348.0957 359.8873 2.5614 10.1866 359.8763 359.1196 357.5373 0.9089 355.3786 3.3858 1.0645 339.7551 357.3264 14.9004 317.2689 58.1833 340.3753 10.5736 356.9102 327.4286 89.3023 357.3371 347.7263 27.4612 355.8564 343.0727 46.8726 42.6993 1.1505 339.5637 354.1658 31.5807 270.1445 354.4457 8.5966 355.6343 2.7897 0.5036 358.0030 6.3267 5.1689 355.6691 352.1060 13.9610 358.4212 5.7529 11.5401 6.2714 5.7786 8.7901 349.2204 343.3910 311.2976 
-19.2371 97.0079 176.8363 358.3169 356.9617 180.1284 357.8619 348.0979 359.8859 2.5524 10.2000 359.8785 359.1639 357.5176 0.9134 355.3244 3.4155 1.0692 339.7693 357.3412 14.8849 317.2322 58.1692 340.4056 10.5335 356.8977 327.3898 89.6633 357.3732 347.8820 27.4419 355.8282 343.0676 46.9065 42.7436 1.1520 339.4814 354.1540 31.5702 270.2079 354.4268 8.5095 355.6205 2.7832 0.4712 357.9953 6.3420 5.1577 355.6630 352.0447 14.0905 358.4071 5.7449 11.5251 6.2724 5.7890 8.7678 349.1896 343.4230 311.3680 
-19.2603 97.0030 176.8115 358.3162 356.9353 180.1295 357.8638 348.0884 359.8876 2.5547 10.2266 359.8768 359.1820 357.4745 0.9179 355.2895 3.4588 1.0755 339.7884 357.3373 14.8780 317.1637 58.1659 340.4488 10.5911 356.8824 327.3747 89.5754 357.3550 347.8723 27.4355 355.8570 343.0654 46.9095 42.7304 1.1617 339.5345 354.1589 31.5895 270.1736 354.4504 8.5242 355.6053 2.7638 0.4407 357.9916 6.3626 5.1606 355.6541 352.0072 14.1068 358.3874 5.7272 11.5141 6.2805 5.8105 8.8146 349.1561 343.4643 311.3357 
-19.2842 96.9986 176.7849 358.3119 356.9089 180.1278 357.8712 348.0825 359.8814 2.5386 10.2418 359.8742 359.1910 357.4373 0.9258 355.2844 3.5097 1.0863 339.8038 357.3472 14.8741 317.1297 58.1503 340.4780 10.5810 356.8795 327.3597 89.5478 357.3649 347.8461 27.4344 355.8349 343.0674 46.9251 42.7642 1.1681 339.4519 354.1243 31.5973 270.4693 354.3578 8.1141 355.5850 2.7454 0.4138 357.9887 6.3821 5.1719 355.6590 351.9810 14.1133 358.3668 5.7069 11.4820 6.2845 5.8319 8.8253 349.0290 343.4618 311.2972 
-19.3096 96.9944 176.7613 358.3086 356.8764 180.1330 357.8781 348.0792 359.8781 2.5244 10.2492 359.8660 359.1996 357.4193 0.9301 355.2812 3.5309 1.0923 339.8056 357.3432 14.8848 317.1622 58.1542 340.4443 10.5879 356.8784 327.3704 89.4854 357.3565 347.8159 27.4314 355.8392 343.0670 46.9264 42.7941 1.1764 339.4612 354.1346 31.5996 270.4516 354.3791 8.0993 355.5669 2.7196 0.3735 357.9810 6.4013 5.1751 355.6550 351.9472 14.1339 358.3451 5.6828 11.4538 6.2925 5.8490 8.8324 349.1304 343.3739 311.3045 
-19.3336 96.9896 176.7368 358.3160 356.8452 180.1317 357.8736 348.1002 359.8883 2.5548 10.2185 359.8762 359.1811 357.4247 0.9254 355.2950 3.5384 1.0883 339.7783 357.3386 14.8866 317.1988 58.1669 340.4290 10.5610 356.8908 327.3746 89.5586 357.3628 347.8557 27.4155 355.8445 343.0435 46.9189 42.8237 1.1953 339.4409 354.1297 31.5869 270.4777 354.3976 8.1418 355.5616 2.6979 0.3406 357.9690 6.4156 5.1777 355.6659 351.9098 14.1500 358.3321 5.6598 11.4721 6.3053 5.8593 8.8198 349.2258 343.2846 311.2987 
-19.3588 96.9857 176.7055 358.3167 356.8259 180.1218 357.8562 348.1411 359.9076 2.5923 10.1601 359.8989 359.1817 357.4736 0.9105 355.2906 3.5166 1.0715 339.7556 357.3283 14.8717 317.1838 58.1978 340.4759 10.5674 356.8912 327.3715 89.5861 357.3341 347.8621 27.3925 355.8304 343.0054 46.9426 42.8733 1.1876 339.4073 354.1407 31.5480 270.3231 354.4351 8.2878 355.5495 2.7019 0.3033 357.9547 6.4129 5.1960 355.7187 351.8876 14.1696 358.3117 5.6593 11.5046 6.3157 5.8541 8.7775 349.2348 343.2646 311.3263 
-19.3851 96.9813 176.6772 358.3172 356.7956 180.1164 357.8758 348.1339 359.9081 2.5649 10.1809 359.8973 359.2015 357.4473 0.9050 355.2909 3.5326 1.0672 339.7725 357.3338 14.8624 317.1932 58.1920 340.4654 10.5699 356.8890 327.3738 89.5080 357.2884 347.7546 27.3987 355.8339 342.9906 46.9429 42.8829 1.2090 339.4547 354.1550 31.5308 270.1303 354.4697 8.4667 355.5392 2.6874 0.2478 357.9328 6.4242 5.2136 355.7336 351.8584 14.1988 358.2919 5.6362 11.4917 6.3204 5.8772 8.7865 349.1247 343.3245 311.3482 
-19.4153 96.9769 176.6469 358.3148 356.7673 180.1126 357.8813 348.1281 359.9113 2.5621 10.2004 359.9030 359.1830 357.4217 0.9027 355.3088 3.5573 1.0659 339.7814 357.3375 14.8665 317.1767 58.1853 340.4615 10.5806 356.8905 327.3775 89.4720 357.2854 347.7136 27.4128 355.8285 343.0229 46.9176 42.8608 1.1944 339.4801 354.1573 31.5452 270.1042 354.4771 8.5268 355.5174 2.6722 0.2034 357.9232 6.4394 5.2411 355.7407 351.8324 14.2150 358.2621 5.6214 11.4931 6.3335 5.8869 8.7879 348.9822 343.3965 311.3388 
-19.4465 96.9722 176.6109 358.3135 356.7479 180.1093 357.8899 348.1282 359.9139 2.5532 10.2149 359.9055 359.1749 357.4248 0.9017 355.3206 3.5618 1.0663 339.7770 357.3314 14.8760 317.2325 58.1847 340.4118 10.5684 356.8980 327.3849 89.4816 357.2934 347.7343 27.4248 355.8352 343.0643 46.9276 42.8126 1.1500 339.5355 354.1645 31.5416 269.8791 354.5462 8.9859 355.4972 2.6698 0.1510 357.9114 6.4555 5.2413 355.7796 351.7890 14.2551 358.2360 5.6200 11.4936 6.3427 5.8970 8.7800 348.9872 343.3617 311.3374 
-19.4771 96.9659 176.5699 358.3146 356.7301 180.1127 357.9225 348.1153 359.9083 2.5057 10.2547 359.8993 359.1926 357.3999 0.9021 355.2989 3.5938 1.0682 339.7917 357.3334 14.8667 317.2312 58.1360 340.4315 10.5408 356.9156 327.3718 89.4980 357.2920 347.7311 27.4310 355.8359 343.0607 46.9367 42.8346 1.1853 339.5216 354.1604 31.5121 269.8939 354.5293 9.0270 355.4830 2.6698 0.0796 357.8914 6.4749 5.2876 355.8167 351.7583 14.2724 358.2157 5.6276 11.4849 6.3504 5.9014 8.7644 349.0621 343.2820 311.3487 
-19.5088 96.9608 176.5341 358.3126 356.6982 180.1165 357.9832 348.0739 359.8979 2.4100 10.3431 359.8903 359.2567 357.3050 0.8910 355.1906 3.6738 1.0611 339.8395 357.3357 14.8893 317.2418 58.0772 340.3818 10.5538 356.9114 327.3684 89.4645 357.2748 347.7149 27.4513 355.8203 343.0704 46.9431 42.8745 1.2338 339.5026 354.1672 31.4898 269.8154 354.4701 8.9466 355.4633 2.6422 0.0015 357.8740 6.5126 5.3375 355.8625 351.7196 14.2902 358.1906 5.6090 11.4695 6.3580 5.9257 8.7781 349.2538 343.1103 311.3443 
-19.5411 96.9562 176.4974 358.3148 356.6643 180.1299 357.9824 348.0546 359.8923 2.4220 10.3811 359.8858 359.2841 357.2732 0.9012 355.1450 3.6905 1.0741 339.8466 357.3255 14.9039 317.1935 58.0517 340.4137 10.5675 356.9108 327.3451 89.4795 357.2998 347.7078 27.4335 355.8328 343.0814 46.9500 42.8992 1.2493 339.5104 354.1532 31.4919 269.8245 354.4845 8.9553 355.4503 2.5673 359.8412 357.8417 6.6371 5.4423 355.8649 351.6306 14.3207 358.1705 5.5963 11.4731 6.3630 5.9383 8.7631 349.0383 343.2227 311.3333 
-19.5730 96.9499 176.4588 358.3136 356.6364 180.1340 357.9339 348.1013 359.9206 2.5042 10.3066 359.9132 359.2490 357.3194 0.8869 355.1560 3.6747 1.0605 339.8110 357.3475 14.8893 317.1424 58.0614 340.4890 10.5150 356.9067 327.3263 89.4537 357.3281 347.6718 27.4005 355.8483 343.0624 46.9718 42.8782 1.2201 339.5097 354.1496 31.5036 269.8241 354.4799 8.9946 355.4319 2.5503 359.7413 357.8224 6.6682 5.4808 355.8734 351.5862 14.3696 358.1492 5.5832 11.4455 6.3676 5.9607 8.7609 349.0408 343.1775 311.3374 
-19.6080 96.9440 176.4191 358.3180 356.6105 180.1328 357.9428 348.1191 359.9286 2.5044 10.2954 359.9207 359.2820 357.2858 0.8711 355.1421 3.7119 1.0439 339.8148 357.3266 14.8814 317.1784 58.0856 340.4280 10.5730 356.8940 327.3697 89.3834 357.2769 347.6600 27.3914 355.8315 343.0262 46.9893 42.8830 1.2319 339.4635 354.1497 31.4950 269.8736 354.4861 8.9527 355.4152 2.5299 359.6344 357.8003 6.7150 5.5134 355.9513 351.5263 14.4347 358.1280 5.5679 11.4258 6.3755 5.9937 8.7695 349.0614 343.1211 311.3421 
-19.6470 96.9402 176.3773 358.3079 356.5713 180.1363 357.9332 348.0987 359.9372 2.5091 10.3236 359.9293 359.2921 357.2598 0.8714 355.1386 3.7241 1.0459 339.8132 357.3476 14.8936 317.2113 58.0509 340.3769 10.5069 356.9237 327.3799 89.3148 357.2891 347.5997 27.4237 355.8341 343.0767 46.9414 42.7883 1.1921 339.5246 354.1827 31.5619 270.0497 354.4644 8.7075 355.3787 2.4939 359.5138 357.7870 6.7631 5.5544 355.9939 351.4672 14.4876 358.0873 5.5473 11.4573 6.3905 6.0167 8.7524 349.0685 343.0669 311.3216 
